<svg width="194" height="197" viewBox="0 0 194 197" fill="none" xmlns="http://www.w3.org/2000/svg">
<path d="M134.155 196.24H90.3571V195.086H134.155V196.24Z" fill="#113785"/>
<path d="M4.25179 196.24H28.1036V106.578H4.25179V196.24Z" fill="#CCCCCC" fill-opacity="0.3"/>
<path d="M157.34 195.746H133.488V136.395H157.34V195.746Z" fill="#CCCCCC" fill-opacity="0.3"/>
<path d="M193.766 195.746H169.914V89.7455H193.766V195.746Z" fill="#CCCCCC" fill-opacity="0.3"/>
<path d="M93.0798 195.746H116.932V93.5932H93.0798V195.746Z" fill="#F3F2F1" fill-opacity="0.1"/>
<path d="M45.2292 195.746H69.081V64.6716H45.2292V195.746Z" fill="#CCCCCC" fill-opacity="0.3"/>
<path d="M169.914 6.1034C169.914 6.1034 169.799 6.22567 169.566 6.45673C169.329 6.69004 168.981 7.0317 168.526 7.48034C167.605 8.38076 166.25 9.70601 164.498 11.4183C160.981 14.8433 155.875 19.8152 149.509 26.0157C136.755 38.4086 118.951 55.7091 98.7341 75.354L98.645 75.4412L98.5648 75.3455C94.5729 70.5709 90.4012 65.5806 86.1476 60.4931C74.726 46.8231 63.8928 33.8575 54.278 22.3502L54.4482 22.3408C43.1422 39.3082 33.5857 53.6507 26.8526 63.7554C23.4822 68.7997 20.8191 72.7853 18.996 75.514C18.084 76.8726 17.3826 77.9168 16.9065 78.6258C16.6697 78.975 16.4895 79.2412 16.3658 79.4232C16.2436 79.6017 16.1778 79.6903 16.1778 79.6903C16.1778 79.6903 16.2337 79.5954 16.3512 79.4138C16.4715 79.229 16.6471 78.9602 16.8776 78.6069C17.3474 77.8935 18.0395 76.8429 18.9395 75.4767C20.7509 72.7404 23.397 68.7435 26.746 63.6849C33.4619 53.5684 42.9941 39.2097 54.2708 22.223L54.35 22.1043L54.4414 22.214C64.0612 33.7172 74.9002 46.6779 86.3277 60.343C90.5804 65.4313 94.7516 70.4221 98.7422 75.1976L98.5729 75.1886C118.812 55.5662 136.635 38.2855 149.402 25.9065C155.79 19.7276 160.912 14.7728 164.44 11.359C166.204 9.65924 167.569 8.34344 168.497 7.44976C168.959 7.00786 169.311 6.67117 169.551 6.44146C169.789 6.21534 169.914 6.1034 169.914 6.1034Z" fill="#E7E8E5"/>
<path d="M58.7855 22.2818C58.7855 24.7224 56.8039 26.7004 54.3595 26.7004C51.9155 26.7004 49.9339 24.7224 49.9339 22.2818C49.9339 19.8413 51.9155 17.8629 54.3595 17.8629C56.8039 17.8629 58.7855 19.8413 58.7855 22.2818Z" fill="#CCCCCC" fill-opacity="0.3"/>
<path d="M20.6037 79.6903C20.6037 82.1308 18.622 84.1088 16.1778 84.1088C13.7334 84.1088 11.7519 82.1308 11.7519 79.6903C11.7519 77.2497 13.7334 75.2713 16.1778 75.2713C18.622 75.2713 20.6037 77.2497 20.6037 79.6903Z" fill="#CCCCCC" fill-opacity="0.3"/>
<path d="M103.08 75.2713C103.08 77.7118 101.098 79.6903 98.6535 79.6903C96.2095 79.6903 94.228 77.7118 94.228 75.2713C94.228 72.8312 96.2095 70.8528 98.6535 70.8528C101.098 70.8528 103.08 72.8312 103.08 75.2713Z" fill="#CCCCCC" fill-opacity="0.3"/>
<path d="M176.601 4.41852C176.601 6.85907 174.62 8.83748 172.175 8.83748C169.731 8.83748 167.749 6.85907 167.749 4.41852C167.749 1.97797 169.731 -5.46066e-06 172.175 -5.46066e-06C174.62 -5.46066e-06 176.601 1.97797 176.601 4.41852Z" fill="#CCCCCC" fill-opacity="0.3"/>
<path d="M129.089 196.359H166.046C166.752 196.359 167.311 195.761 167.261 195.058L165.416 168.945C165.371 168.309 164.842 167.816 164.203 167.815L130.276 167.767C129.624 167.766 129.087 168.278 129.058 168.927L127.873 195.089C127.842 195.781 128.395 196.359 129.089 196.359Z" fill="#17282F"/>
<path d="M134.188 196.359C134.245 196.359 134.291 189.969 134.291 182.088C134.291 174.205 134.245 167.817 134.188 167.817C134.131 167.817 134.085 174.205 134.085 182.088C134.085 189.969 134.131 196.359 134.188 196.359Z" fill="#33535F"/>
<path d="M134.625 168.494C134.622 168.495 134.641 168.531 134.681 168.598C134.728 168.674 134.787 168.771 134.861 168.893C135.032 169.161 135.271 169.537 135.575 170.014C136.203 170.981 137.115 172.382 138.347 174.041C139.591 175.685 141.152 177.615 143.253 179.381C144.3 180.264 145.486 181.09 146.8 181.801C148.118 182.495 149.603 183.048 151.198 183.176C152.796 183.309 154.354 182.95 155.736 182.392C157.121 181.824 158.364 181.062 159.43 180.197C161.566 178.456 162.977 176.35 163.84 174.476C164.709 172.59 165.019 170.917 165.146 169.774C165.171 169.486 165.201 169.231 165.213 169.009C165.216 168.791 165.218 168.603 165.22 168.447C165.22 168.304 165.22 168.19 165.22 168.101C165.219 168.023 165.216 167.983 165.213 167.983C165.209 167.983 165.205 168.023 165.199 168.101C165.193 168.19 165.187 168.303 165.179 168.446C165.171 168.601 165.162 168.788 165.152 169.005C165.133 169.226 165.098 169.479 165.066 169.765C164.915 170.899 164.586 172.554 163.708 174.415C162.836 176.264 161.427 178.339 159.31 180.049C158.255 180.9 157.027 181.648 155.66 182.205C154.298 182.752 152.771 183.101 151.215 182.971C149.658 182.846 148.197 182.306 146.895 181.623C145.595 180.922 144.416 180.108 143.375 179.236C141.285 177.492 139.718 175.581 138.463 173.954C137.22 172.31 136.291 170.923 135.642 169.97C135.324 169.501 135.075 169.133 134.896 168.87C134.815 168.753 134.75 168.66 134.699 168.586C134.653 168.523 134.629 168.492 134.625 168.494Z" fill="#33535F"/>
<path d="M149.919 183.2C149.919 184.135 150.679 184.893 151.615 184.893C152.552 184.893 153.312 184.135 153.312 183.2C153.312 182.264 152.552 181.506 151.615 181.506C150.679 181.506 149.919 182.264 149.919 183.2Z" fill="#33535F"/>
<path d="M139.996 162.499C140.705 161.843 141.703 161.6 142.665 161.505C144.986 161.275 147.541 161.757 149.57 162.907C151.598 164.057 153.091 165.972 154.082 168.08L152.75 169.472C152.205 167.281 150.989 165.373 149.102 164.128C147.216 162.882 145.211 162.312 142.977 162.67C142.464 162.753 141.739 162.944 141.313 163.242C140.441 163.85 140.308 164.558 140.462 165.461C140.689 166.797 141.025 167.377 141.598 168.093C140.617 168.116 140.388 168.122 139.407 168.145C139.159 167.18 138.91 166.2 138.927 165.204C138.945 164.208 139.264 163.176 139.996 162.499Z" fill="#17282F"/>
<path d="M102.886 188.169H88.8753V182.658H102.886V188.169Z" fill="#FAFAF9"/>
<path d="M132.294 182.866H88.2917V181.711H132.294V182.866Z" fill="#33535F"/>
<path d="M132.294 189.077H88.4957V187.923H132.294V189.077Z" fill="#33535F"/>
<path d="M102.886 181.986L102.953 188.857H132.294V181.986H102.886Z" fill="#33535F"/>
<path d="M110.018 185.415C110.018 186.359 109.308 187.125 108.431 187.125C107.556 187.125 106.846 186.359 106.846 185.415C106.846 184.47 107.556 183.705 108.431 183.705C109.308 183.705 110.018 184.47 110.018 185.415Z" fill="#17282F"/>
<path d="M108.431 183.951C107.692 183.951 107.092 184.607 107.092 185.415C107.092 186.222 107.692 186.879 108.431 186.879C109.17 186.879 109.771 186.222 109.771 185.415C109.771 184.607 109.17 183.951 108.431 183.951ZM108.431 187.371C107.421 187.371 106.599 186.493 106.599 185.415C106.599 184.336 107.421 183.459 108.431 183.459C109.442 183.459 110.263 184.336 110.263 185.415C110.263 186.493 109.442 187.371 108.431 187.371Z" fill="#DADBD8"/>
<path d="M101.833 186.818C101.833 186.888 98.9543 186.946 95.404 186.946C91.8524 186.946 88.9743 186.888 88.9743 186.818C88.9743 186.747 91.8524 186.69 95.404 186.69C98.9543 186.69 101.833 186.747 101.833 186.818Z" fill="#17282F"/>
<path d="M101.833 185.857C101.833 185.929 98.9543 185.986 95.404 185.986C91.8524 185.986 88.9743 185.929 88.9743 185.857C88.9743 185.787 91.8524 185.73 95.404 185.73C98.9543 185.73 101.833 185.787 101.833 185.857Z" fill="#17282F"/>
<path d="M101.833 184.898C101.833 184.968 98.9543 185.026 95.404 185.026C91.8524 185.026 88.9743 184.968 88.9743 184.898C88.9743 184.827 91.8524 184.77 95.404 184.77C98.9543 184.77 101.833 184.827 101.833 184.898Z" fill="#17282F"/>
<path d="M101.833 183.937C101.833 184.008 98.9543 184.066 95.404 184.066C91.8524 184.066 88.9743 184.008 88.9743 183.937C88.9743 183.867 91.8524 183.81 95.404 183.81C98.9543 183.81 101.833 183.867 101.833 183.937Z" fill="#17282F"/>
<path d="M129.04 187.125H115.818V183.447H129.04V187.125Z" fill="white"/>
<path d="M117.877 186.751C117.807 186.751 117.749 186.095 117.749 185.286C117.749 184.477 117.807 183.821 117.877 183.821C117.948 183.821 118.006 184.477 118.006 185.286C118.006 186.095 117.948 186.751 117.877 186.751Z" fill="#DADBD8"/>
<path d="M119.626 186.751C119.555 186.751 119.497 186.095 119.497 185.286C119.497 184.477 119.555 183.821 119.626 183.821C119.696 183.821 119.754 184.477 119.754 185.286C119.754 186.095 119.696 186.751 119.626 186.751Z" fill="#DADBD8"/>
<path d="M121.374 186.751C121.303 186.751 121.246 186.095 121.246 185.286C121.246 184.477 121.303 183.821 121.374 183.821C121.445 183.821 121.502 184.477 121.502 185.286C121.502 186.095 121.445 186.751 121.374 186.751Z" fill="#DADBD8"/>
<path d="M123.122 186.751C123.052 186.751 122.994 186.095 122.994 185.286C122.994 184.477 123.052 183.821 123.122 183.821C123.193 183.821 123.251 184.477 123.251 185.286C123.251 186.095 123.193 186.751 123.122 186.751Z" fill="#DADBD8"/>
<path d="M124.871 186.751C124.8 186.751 124.742 186.095 124.742 185.286C124.742 184.477 124.8 183.821 124.871 183.821C124.941 183.821 124.999 184.477 124.999 185.286C124.999 186.095 124.941 186.751 124.871 186.751Z" fill="#DADBD8"/>
<path d="M126.619 186.751C126.548 186.751 126.491 186.095 126.491 185.286C126.491 184.477 126.548 183.821 126.619 183.821C126.69 183.821 126.747 184.477 126.747 185.286C126.747 186.095 126.69 186.751 126.619 186.751Z" fill="#DADBD8"/>
<path d="M104.748 195.332H90.7371V189.821H104.748V195.332Z" fill="#FAFAF9"/>
<path d="M134.155 190.029H90.1531V188.874H134.155V190.029Z" fill="#113785"/>
<path d="M104.748 189.149L104.814 196.021H134.155V189.149H104.748Z" fill="#113785"/>
<path d="M111.879 192.578C111.879 193.523 111.169 194.288 110.293 194.288C109.417 194.288 108.707 193.523 108.707 192.578C108.707 191.634 109.417 190.868 110.293 190.868C111.169 190.868 111.879 191.634 111.879 192.578Z" fill="#17282F"/>
<path d="M110.293 191.114C109.554 191.114 108.953 191.771 108.953 192.578C108.953 193.385 109.554 194.042 110.293 194.042C111.032 194.042 111.633 193.385 111.633 192.578C111.633 191.771 111.032 191.114 110.293 191.114ZM110.293 194.534C109.282 194.534 108.461 193.656 108.461 192.578C108.461 191.5 109.282 190.623 110.293 190.623C111.303 190.623 112.125 191.5 112.125 192.578C112.125 193.656 111.303 194.534 110.293 194.534Z" fill="#DADBD8"/>
<path d="M103.695 193.981C103.695 194.052 100.816 194.109 97.2658 194.109C93.7142 194.109 90.8357 194.052 90.8357 193.981C90.8357 193.911 93.7142 193.853 97.2658 193.853C100.816 193.853 103.695 193.911 103.695 193.981Z" fill="#17282F"/>
<path d="M103.695 193.021C103.695 193.092 100.816 193.149 97.2658 193.149C93.7142 193.149 90.8357 193.092 90.8357 193.021C90.8357 192.95 93.7142 192.893 97.2658 192.893C100.816 192.893 103.695 192.95 103.695 193.021Z" fill="#17282F"/>
<path d="M103.695 192.061C103.695 192.132 100.816 192.189 97.2658 192.189C93.7142 192.189 90.8357 192.132 90.8357 192.061C90.8357 191.99 93.7142 191.933 97.2658 191.933C100.816 191.933 103.695 191.99 103.695 192.061Z" fill="#17282F"/>
<path d="M103.695 191.101C103.695 191.171 100.816 191.229 97.2658 191.229C93.7142 191.229 90.8357 191.171 90.8357 191.101C90.8357 191.03 93.7142 190.973 97.2658 190.973C100.816 190.973 103.695 191.03 103.695 191.101Z" fill="#17282F"/>
<path d="M130.901 194.288H117.679V190.61H130.901V194.288Z" fill="white"/>
<path d="M119.739 193.915C119.668 193.915 119.611 193.258 119.611 192.449C119.611 191.64 119.668 190.984 119.739 190.984C119.81 190.984 119.867 191.64 119.867 192.449C119.867 193.258 119.81 193.915 119.739 193.915Z" fill="#DADBD8"/>
<path d="M121.487 193.915C121.416 193.915 121.359 193.258 121.359 192.449C121.359 191.64 121.416 190.984 121.487 190.984C121.558 190.984 121.615 191.64 121.615 192.449C121.615 193.258 121.558 193.915 121.487 193.915Z" fill="#DADBD8"/>
<path d="M123.235 193.915C123.165 193.915 123.107 193.258 123.107 192.449C123.107 191.64 123.165 190.984 123.235 190.984C123.306 190.984 123.364 191.64 123.364 192.449C123.364 193.258 123.306 193.915 123.235 193.915Z" fill="#DADBD8"/>
<path d="M124.984 193.915C124.913 193.915 124.856 193.258 124.856 192.449C124.856 191.64 124.913 190.984 124.984 190.984C125.054 190.984 125.112 191.64 125.112 192.449C125.112 193.258 125.054 193.915 124.984 193.915Z" fill="#DADBD8"/>
<path d="M126.732 193.915C126.661 193.915 126.604 193.258 126.604 192.449C126.604 191.64 126.661 190.984 126.732 190.984C126.803 190.984 126.86 191.64 126.86 192.449C126.86 193.258 126.803 193.915 126.732 193.915Z" fill="#DADBD8"/>
<path d="M128.48 193.915C128.41 193.915 128.352 193.258 128.352 192.449C128.352 191.64 128.41 190.984 128.48 190.984C128.551 190.984 128.609 191.64 128.609 192.449C128.609 193.258 128.551 193.915 128.48 193.915Z" fill="#DADBD8"/>
<path d="M76.1299 57.679C76.1299 57.679 76.1303 57.5851 76.1389 57.412C76.1488 57.2295 76.1623 56.9755 76.1798 56.6482C76.2195 55.9726 76.2771 54.9935 76.3514 53.7289L76.432 53.7748L76.4257 53.7793L76.3536 53.7667L76.3568 53.7033C77.4635 52.3677 78.7328 50.3574 79.306 47.6489C79.5964 46.3025 79.6914 44.7993 79.5329 43.2151C79.3614 41.6341 78.8944 39.9793 78.084 38.3915C77.2672 36.8092 76.0983 35.3041 74.6089 34.049C73.1221 32.7997 71.3175 31.7748 69.2923 31.2488C67.2769 30.7067 65.0711 30.6127 62.9063 31.0294C60.736 31.4322 58.6351 32.4302 56.8526 33.8746C55.9295 34.5835 55.1636 35.4543 54.4531 36.3412C54.1321 36.8101 53.803 37.274 53.522 37.7608L53.1298 38.5062L52.9367 38.8784L52.7813 39.2664C51.9123 41.3181 51.5827 43.5203 51.7066 45.6201C51.8205 47.728 52.4873 49.7132 53.4342 51.4264C54.3887 53.1423 55.6576 54.5867 57.0682 55.6961C58.4852 56.802 60.0345 57.5783 61.5645 58.0494C61.9522 58.1488 62.3335 58.2468 62.7086 58.343C63.0855 58.4302 63.4659 58.468 63.8338 58.5314C64.5722 58.6464 65.2958 58.668 65.9856 58.6577C68.7637 58.6006 70.9744 57.7357 72.4787 56.9103L72.5134 56.9049C73.6661 57.1481 74.563 57.3374 75.1834 57.4686C75.4837 57.5338 75.7165 57.5842 75.8849 57.6206C76.0443 57.6561 76.1299 57.679 76.1299 57.679C76.1299 57.679 76.0551 57.67 75.8998 57.6426C75.7332 57.612 75.5027 57.5698 75.2059 57.5154C74.5751 57.3967 73.6643 57.2245 72.4936 57.0034L72.5278 56.9975C71.024 57.8485 68.7992 58.7435 65.9896 58.8204C65.2917 58.8357 64.5601 58.8182 63.8117 58.7062C63.4385 58.6442 63.053 58.6078 62.6703 58.5215C62.2899 58.4262 61.9026 58.3286 61.5091 58.2302C59.9557 57.7599 58.3803 56.9796 56.9381 55.8624C55.5018 54.7417 54.2086 53.2794 53.2334 51.5379C52.2662 49.8 51.5836 47.7815 51.4639 45.6363C51.3338 43.4997 51.6665 41.2587 52.5494 39.1688L52.7075 38.7732L52.9038 38.3942C53.0366 38.1421 53.1694 37.889 53.3027 37.635C53.5886 37.1391 53.9227 36.6667 54.2501 36.1893C54.9723 35.2852 55.753 34.3992 56.6918 33.6768C58.5072 32.2068 60.6473 31.1917 62.8572 30.7826C65.0621 30.3601 67.3057 30.459 69.3566 31.0142C71.417 31.5536 73.25 32.5997 74.7575 33.8737C76.2681 35.1531 77.4505 36.6856 78.2735 38.2949C79.0903 39.9096 79.5563 41.5914 79.7225 43.1953C79.8751 44.802 79.7697 46.3232 79.4672 47.6835C78.8683 50.4203 77.5675 52.4392 76.436 53.7703L76.3671 53.6943L76.3735 53.6898L76.4455 53.7024L76.4545 53.7361C76.3532 55.0124 76.2744 56.0014 76.2204 56.6829C76.1929 57.0047 76.1717 57.2533 76.1564 57.4327C76.1416 57.5995 76.1299 57.679 76.1299 57.679Z" fill="#113785"/>
<path d="M59.3807 45.5963L61.1448 43.7109L64.773 46.717L71.4602 39.8399L73.218 41.6057L64.6321 50.2423L59.3807 45.5963Z" fill="#113785"/>
<path d="M173.941 34.0481H162.479L129.03 54.147C129.155 54.3349 133.103 57.1854 138.26 60.8667L89.8226 149.911L49.2851 132.035L13.3911 196.445H33.0046L57.7369 151.34L94.9371 168.545L110.706 170.424L153.394 71.6138C158.758 75.4106 162.878 78.3174 162.878 78.3174H174.341C174.341 78.3174 170.998 50.3061 170.998 50.0836C170.998 49.8611 173.941 34.0481 173.941 34.0481Z" fill="#113785" fill-opacity="0.59"/>
<path d="M24.9955 196.445L61.0332 131.483L101.427 149.911L153.52 54.147L169.03 62.2819L110.706 170.424L69.3409 151.34L44.6087 196.445H24.9955Z" fill="#113785"/>
<path d="M140.492 54.147C140.862 54.6999 174.341 78.3174 174.341 78.3174L173.941 34.0481L140.492 54.147Z" fill="#113785"/>
<path d="M140.492 54.147C140.492 54.2117 137.926 54.2639 134.761 54.2639C131.596 54.2639 129.03 54.2117 129.03 54.147C129.03 54.0822 131.596 54.0297 134.761 54.0297C137.926 54.0297 140.492 54.0822 140.492 54.147Z" fill="#17282F"/>
<path d="M149.447 61.0533C149.447 61.118 146.881 61.1706 143.716 61.1706C140.55 61.1706 137.985 61.118 137.985 61.0533C137.985 60.9885 140.55 60.9364 143.716 60.9364C146.881 60.9364 149.447 60.9885 149.447 61.0533Z" fill="#17282F"/>
<path d="M63.3601 101.149C63.3601 101.149 62.6649 101.451 62.556 100.523C62.447 99.5958 64.3827 97.6655 65.0018 97.0528C65.6209 96.4396 66.5056 96.5713 67.2904 96.7458C68.0757 96.9206 71.2896 97.2439 72.3554 97.9272C73.4216 98.6105 75.0538 102.038 75.3942 102.201C75.7345 102.364 85.76 102.886 85.76 102.886L85.3286 111.089C85.3286 111.089 75.4887 109.217 73.54 108C71.5913 106.784 71.8475 106.299 71.2932 105.163C70.7394 104.028 70.1446 102.823 70.1446 102.823L69.2238 102.671L67.747 103.484C67.747 103.484 67.5727 105.567 66.1112 105.514L65.3948 105.137C65.3948 105.137 64.9167 105.689 64.3723 104.836C63.8279 103.983 63.9311 103.824 63.9311 103.824C63.9311 103.824 63.3583 104.532 62.7392 103.654C62.1201 102.777 63.3601 101.149 63.3601 101.149Z" fill="#B96357"/>
<path d="M74.1609 104.631C74.1622 104.637 74.1253 104.649 74.0524 104.665C73.9799 104.683 73.8691 104.697 73.7255 104.697C73.4396 104.7 73.0069 104.63 72.5458 104.362C72.087 104.102 71.6052 103.634 71.2963 102.979C70.978 102.329 70.8222 101.529 70.7777 100.681L70.937 100.777C70.2779 101.082 69.5012 101.278 68.6885 101.306C68.1175 101.327 67.5583 101.264 67.036 101.132C66.7866 101.059 66.498 101.02 66.2805 100.782C66.1648 100.668 66.1373 100.432 66.2548 100.299C66.362 100.166 66.4971 100.119 66.6092 100.071C67.5115 99.7064 68.3409 99.4219 69.0446 99.2079C69.7479 98.993 70.3256 98.8478 70.7263 98.757C71.1275 98.6671 71.3522 98.6307 71.3558 98.6455C71.3594 98.6622 71.1424 98.7283 70.7493 98.8451C70.3567 98.9629 69.7884 99.1315 69.095 99.3653C68.4016 99.5986 67.5831 99.8971 66.6916 100.271C66.5826 100.315 66.479 100.365 66.4309 100.431C66.3849 100.495 66.3876 100.566 66.4507 100.637C66.5817 100.79 66.8424 100.844 67.0918 100.91C67.5939 101.033 68.1315 101.093 68.6799 101.072C69.4615 101.045 70.2081 100.86 70.8434 100.573L70.9951 100.504L71.0023 100.669C71.0388 101.501 71.1797 102.272 71.4706 102.897C71.7529 103.526 72.191 103.975 72.6192 104.241C73.0474 104.512 73.4535 104.601 73.7282 104.622C74.0055 104.641 74.1582 104.613 74.1609 104.631Z" fill="#6F3430"/>
<path d="M69.0856 99.0056C69.1045 99.0299 68.747 99.2228 68.1391 99.1895C67.8406 99.1859 67.489 99.1355 67.1171 99.1603C66.7379 99.1773 66.3831 99.3378 66.0909 99.6754C65.4817 100.355 64.7528 100.804 64.2043 101.032C63.6514 101.265 63.2809 101.313 63.275 101.287C63.2647 101.25 63.6154 101.146 64.1341 100.882C64.6528 100.619 65.3255 100.177 65.9221 99.5127C66.0792 99.3504 66.2548 99.1836 66.4705 99.0897C66.6803 98.9899 66.9018 98.9539 67.1045 98.9449C67.5128 98.9314 67.8595 99.0011 68.1491 99.024C68.7299 99.0973 69.0716 98.9719 69.0856 99.0056Z" fill="#6F3430"/>
<path d="M67.0193 101.192C67.0743 101.21 66.669 102.133 65.7415 102.92C64.8212 103.716 63.8464 103.976 63.8365 103.919C63.8086 103.852 64.7086 103.505 65.5889 102.742C66.4777 101.99 66.9577 101.154 67.0193 101.192Z" fill="#6F3430"/>
<path d="M67.3805 102.45C67.439 102.456 67.3071 103.264 66.7204 104.057C66.1404 104.855 65.4092 105.225 65.3854 105.171C65.3453 105.112 65.9838 104.675 66.5308 103.918C67.0873 103.169 67.3125 102.429 67.3805 102.45Z" fill="#6F3430"/>
<path d="M97.6594 85.1598L88.688 101.323L74.7633 101.083L73.7169 109.432L88.086 112.949L94.0019 106.463L97.6594 85.1598Z" fill="#DADBD8"/>
<path d="M89.8073 104.065C89.738 104.071 89.6515 103.407 89.3404 102.656C89.0369 101.902 88.634 101.366 88.688 101.323C88.7299 101.279 89.2364 101.773 89.5574 102.567C89.8843 103.359 89.8677 104.066 89.8073 104.065Z" fill="#17282F"/>
<path d="M101.071 56.5529C99.9359 56.7031 98.7535 55.8903 98.4896 54.7781C98.2253 53.6655 98.9169 52.4095 99.9989 52.0355C99.278 51.3243 99.079 50.1407 99.5279 49.2335C99.9764 48.3268 101.039 47.7653 102.043 47.9047C102.066 46.9063 102.646 45.9389 103.516 45.4457C104.386 44.953 105.515 44.9526 106.386 45.4448C107.473 44.4792 109.253 44.4109 110.412 45.2906C111.38 45.0937 112.448 45.5909 112.92 46.4572C113.392 47.3239 113.229 48.4895 112.537 49.1935" fill="#17282F"/>
<path d="M110.956 47.5837L110.443 47.5941C105.276 47.6934 101.053 51.737 100.738 56.8865C100.444 61.6759 100.182 66.971 100.263 69.5356C100.432 74.846 105.769 75.5693 105.769 75.5693L105.443 81.9595L106.074 86.8307L118.347 81.3104L119.041 58.1434C119.41 52.619 116.498 47.7995 110.956 47.5837Z" fill="#B96357"/>
<path d="M105.725 75.5626C105.725 75.5626 109.127 75.701 112.657 73.3904C112.657 73.3904 111.008 77.5037 105.69 77.1279L105.725 75.5626Z" fill="#6F3430"/>
<path d="M102.465 62.3007C102.458 62.7017 102.793 63.0375 103.212 63.0519C103.631 63.0663 103.976 62.7539 103.982 62.3529C103.989 61.9519 103.654 61.6156 103.235 61.6012C102.816 61.5869 102.471 61.9002 102.465 62.3007Z" fill="#17282F"/>
<path d="M101.932 59.4632C102.028 59.5603 102.595 59.1238 103.413 59.1104C104.229 59.0847 104.837 59.4934 104.924 59.3918C104.967 59.3464 104.868 59.1697 104.603 58.9849C104.342 58.8006 103.899 58.6253 103.39 58.6374C102.881 58.65 102.456 58.8451 102.214 59.0416C101.966 59.2394 101.885 59.4196 101.932 59.4632Z" fill="#17282F"/>
<path d="M109.389 62.1313C109.382 62.5318 109.717 62.8676 110.136 62.882C110.555 62.8964 110.9 62.5839 110.906 62.183C110.913 61.7824 110.578 61.4457 110.159 61.4313C109.74 61.4169 109.395 61.7303 109.389 62.1313Z" fill="#17282F"/>
<path d="M109.971 59.4601C110.067 59.5572 110.635 59.1207 111.453 59.1072C112.269 59.082 112.877 59.4902 112.964 59.3882C113.006 59.3432 112.908 59.1665 112.642 58.9818C112.381 58.7975 111.939 58.6221 111.43 58.6343C110.921 58.6469 110.496 58.8424 110.253 59.0384C110.006 59.2358 109.924 59.4165 109.971 59.4601Z" fill="#17282F"/>
<path d="M107.122 65.5711C107.124 65.5244 106.615 65.4466 105.789 65.3576C105.58 65.3401 105.381 65.3023 105.343 65.1607C105.291 65.011 105.374 64.7849 105.471 64.5403C105.657 64.0324 105.852 63.4992 106.057 62.9409C106.871 60.6649 107.455 58.7948 107.363 58.7629C107.271 58.7309 106.537 60.5498 105.723 62.8262C105.528 63.3877 105.341 63.9227 105.163 64.4342C105.089 64.6729 104.958 64.944 105.071 65.2546C105.13 65.4093 105.285 65.5194 105.42 65.5527C105.555 65.5909 105.672 65.5909 105.775 65.595C106.605 65.6237 107.119 65.6174 107.122 65.5711Z" fill="#17282F"/>
<path d="M109.201 56.3331C109.313 56.5376 110.009 56.2998 110.871 56.2553C111.732 56.1915 112.462 56.3398 112.537 56.1232C112.569 56.0198 112.413 55.8373 112.098 55.6772C111.787 55.5176 111.315 55.3985 110.799 55.4309C110.282 55.4637 109.837 55.6404 109.557 55.8373C109.274 56.0346 109.151 56.2351 109.201 56.3331Z" fill="#17282F"/>
<path d="M101.827 56.098C102.003 56.2801 102.673 56.0746 103.485 56.0499C104.295 56.0013 104.986 56.1452 105.14 55.9483C105.208 55.853 105.096 55.6691 104.792 55.4997C104.493 55.3306 103.995 55.1971 103.438 55.2218C102.881 55.2475 102.401 55.425 102.122 55.6201C101.84 55.8161 101.749 56.009 101.827 56.098Z" fill="#17282F"/>
<path d="M101.202 54.4405C101.202 54.4405 102.541 51.087 104.132 50.2796C106.059 49.3023 106.938 51.4174 108.781 50.8645C110.625 50.3111 112.464 49.3733 114.386 50.7673C116.49 52.2931 115.54 53.4102 115.713 55.7649C116.418 65.3099 118.218 67.9784 118.628 63.4682C118.673 62.9737 120.036 62.5552 120.199 60.468C120.41 57.7613 120.45 54.4792 119.809 52.5736C119.269 50.9678 118.324 49.8692 116.645 48.6702C113.996 46.7777 110.407 46.8056 107.975 47.0973C105.543 47.3891 100.899 50.2796 101.202 54.4405Z" fill="#17282F"/>
<path d="M118.286 63.3302C118.304 62.5098 118.998 61.8485 119.818 61.9105C120.812 61.9856 121.927 62.5264 121.902 64.575C121.856 68.2086 118.211 67.4133 118.206 67.309C118.203 67.238 118.253 64.8505 118.286 63.3302Z" fill="#B96357"/>
<path d="M119.016 65.9519C119.032 65.9402 119.079 65.9968 119.185 66.0472C119.289 66.0962 119.468 66.1317 119.658 66.0629C120.045 65.9272 120.376 65.3216 120.402 64.6667C120.416 64.3362 120.35 64.0207 120.236 63.7586C120.128 63.4911 119.958 63.3032 119.766 63.2663C119.573 63.2196 119.435 63.3338 119.389 63.4354C119.339 63.5361 119.361 63.6089 119.342 63.6152C119.332 63.6242 119.265 63.5531 119.296 63.4035C119.312 63.3315 119.355 63.2466 119.442 63.1778C119.53 63.1077 119.659 63.073 119.794 63.0897C120.074 63.1126 120.323 63.3733 120.449 63.661C120.59 63.9505 120.671 64.3057 120.656 64.6766C120.623 65.4089 120.239 66.089 119.711 66.2342C119.454 66.298 119.242 66.218 119.133 66.1308C119.021 66.04 119.003 65.9582 119.016 65.9519Z" fill="#6F3430"/>
<path d="M118.079 56.2953C117.613 56.6266 117.119 56.9683 116.552 57.0353C115.983 57.1027 115.326 56.7889 115.219 56.2279C115.171 55.9757 115.228 55.6813 115.057 55.4893C114.854 55.2601 114.489 55.3401 114.185 55.3783C113.129 55.5104 111.871 54.3686 111.582 53.3464C111.32 53.755 110.732 53.8881 110.318 53.6332C109.905 53.3787 109.754 53.2317 109.427 52.8726C109.1 52.5134 108.646 52.1955 108.167 52.2729C107.898 52.3165 107.65 52.481 107.379 52.4626C106.9 52.4293 106.656 51.8755 106.574 51.4035C106.493 50.9314 106.426 50.3803 106.017 50.1308C105.637 49.8997 105.154 50.0467 104.716 50.12C104.277 50.1933 103.707 50.1011 103.587 49.6741C103.523 49.4502 103.615 49.211 103.736 49.0124C104.285 48.111 105.513 47.6916 106.5 48.0679C106.832 46.8613 107.938 45.9056 109.182 45.7501C110.427 45.595 111.734 46.249 112.354 47.3369C113.109 46.6253 114.221 46.3115 115.237 46.5228C116.254 46.7336 117.148 47.4632 117.557 48.4163C118.437 48.1668 119.453 48.4886 120.027 49.1998C120.601 49.911 120.702 50.9696 120.271 51.7761C120.933 52.1362 121.505 52.7741 121.533 53.5253C121.561 54.2769 120.842 55.0398 120.112 54.8564C120.417 55.4358 120.193 56.2347 119.632 56.5727C119.07 56.9108 118.258 56.735 117.887 56.1951" fill="#17282F"/>
<path d="M106.25 49.1418C106.248 49.1423 106.248 49.1648 106.253 49.2084C106.258 49.252 106.262 49.3181 106.28 49.4017C106.316 49.5689 106.388 49.8161 106.557 50.0967C106.727 50.3727 106.987 50.6905 107.38 50.9395C107.765 51.1913 108.29 51.3783 108.878 51.3347L108.815 51.2556C108.708 51.5684 108.746 51.9407 108.908 52.2567C109.061 52.579 109.298 52.8622 109.548 53.1378C109.675 53.2704 109.787 53.4264 109.963 53.5469C110.133 53.6624 110.336 53.7271 110.543 53.7492C110.955 53.7937 111.415 53.6579 111.706 53.3077L111.569 53.2713C111.676 53.9915 112.101 54.7058 112.763 55.1337C113.114 55.3765 113.544 55.5208 113.965 55.5015C114.386 55.4893 114.775 55.3581 115.137 55.2205L115.039 55.18C115.243 55.6273 115.551 56.0067 115.921 56.2841C116.285 56.561 116.766 56.7184 117.196 56.6042C118.05 56.4059 118.606 55.6822 118.708 55.0088L118.626 55.0488C119.056 55.2722 119.514 55.2857 119.88 55.2079C120.25 55.1328 120.539 54.9656 120.744 54.8029C120.949 54.6365 121.07 54.468 121.142 54.3511C121.207 54.2302 121.234 54.1636 121.23 54.1618C121.211 54.147 121.115 54.4401 120.706 54.7548C120.502 54.9049 120.219 55.0578 119.862 55.1216C119.511 55.1886 119.077 55.1652 118.679 54.9508L118.61 54.9139L118.598 54.9908C118.495 55.6192 117.959 56.2949 117.166 56.4698C116.776 56.5687 116.354 56.428 116.01 56.1659C115.663 55.9047 115.37 55.5388 115.18 55.118L115.15 55.0515L115.082 55.0771C114.725 55.2115 114.349 55.3342 113.96 55.3446C113.571 55.3603 113.185 55.2322 112.851 55.002C112.225 54.5974 111.826 53.929 111.722 53.2475L111.696 53.0757L111.585 53.2111C111.34 53.5109 110.928 53.6399 110.558 53.6008C110.373 53.5819 110.193 53.5253 110.044 53.4255C109.899 53.3302 109.782 53.176 109.652 53.0425C109.403 52.7714 109.173 52.499 109.027 52.1996C108.874 51.9038 108.84 51.5765 108.931 51.2938L108.959 51.2066L108.867 51.2142C108.313 51.2623 107.808 51.0937 107.432 50.8577C107.049 50.6253 106.788 50.3237 106.615 50.0607C106.273 49.5176 106.276 49.1328 106.25 49.1418Z" fill="#33535F"/>
<path d="M107.354 68.3605C107.372 68.2248 108.27 68.3942 109.054 67.7483C109.84 67.1041 109.922 66.129 110.049 66.1457C110.108 66.1443 110.183 66.392 110.117 66.7975C110.054 67.1958 109.817 67.7496 109.337 68.1448C108.857 68.5386 108.297 68.6406 107.923 68.601C107.54 68.5633 107.337 68.4212 107.354 68.3605Z" fill="#17282F"/>
<path d="M81.4258 119.782L88.3534 112.154L94.1469 94.6734C95.3297 91.6408 96.3446 87.7901 97.7778 84.9148C98.4829 83.5005 99.6707 82.3852 101.117 81.7437L103.576 80.6532L105.047 78.3093C104.2 83.6111 111.642 84.2639 119.551 77.6817C119.551 77.6817 122.164 79.4466 125.846 82.4958C127.458 83.831 128.92 85.2897 129.53 87.4938C130.636 91.4947 125.881 103.335 120.704 114.473C119.155 117.806 111.779 132.735 111.779 132.735L109.123 134.667C109.123 134.667 85.6492 127.566 83.5375 123.675C81.4258 119.782 81.4258 119.782 81.4258 119.782Z" fill="#DADBD8"/>
<path d="M85.2687 115.234C85.2633 115.229 85.3309 115.15 85.465 115.005C85.6177 114.845 85.8153 114.637 86.0616 114.379C86.6069 113.822 87.3642 113.048 88.2954 112.096L88.276 112.128C88.7096 110.796 89.2278 109.204 89.8051 107.431C90.4017 105.656 91.0064 103.686 91.6178 101.603C92.8011 97.5181 93.9209 93.8238 94.9551 91.2281C95.4567 89.9254 95.9272 88.8973 96.2582 88.191C96.4248 87.8593 96.5585 87.5923 96.6616 87.3877C96.7561 87.2052 96.8088 87.1112 96.8165 87.1148C96.8237 87.1184 96.7845 87.2196 96.7039 87.4079C96.6116 87.6174 96.4909 87.8899 96.341 88.2288C96.0366 88.9454 95.5904 89.9802 95.11 91.287C94.1181 93.8903 93.0267 97.5815 91.8425 101.669C91.2319 103.751 90.6173 105.729 90.0095 107.498C89.4138 109.265 88.8784 110.851 88.4309 112.179L88.4241 112.198L88.4111 112.211C87.4579 113.141 86.6825 113.898 86.1251 114.442C85.8662 114.688 85.6582 114.886 85.4979 115.038C85.3529 115.172 85.2741 115.24 85.2687 115.234Z" fill="#17282F"/>
<path d="M106.821 86.1218L98.7022 119.352L90.2693 123.54V115.411L104.862 85.3999L106.821 86.1218Z" fill="#113785"/>
<path d="M109.298 124.947C107.496 124.947 105.685 124.474 104.022 123.752C101.766 122.774 99.7342 121.357 97.7008 119.975C97.6652 119.951 97.6297 119.927 97.5941 119.902L98.7022 119.352L99.1362 117.577L116.666 120.294C115.873 122.618 113.623 124.26 111.214 124.757C110.581 124.887 109.941 124.947 109.298 124.947Z" fill="#8F9192"/>
<path d="M97.5941 119.902C95.5954 118.546 93.5548 117.21 91.2932 116.361L99.1362 117.577L98.7022 119.352L97.5941 119.902Z" fill="#113785"/>
<path d="M103.576 80.5502L105.651 77.3778L106.466 81.7244L108.534 79.3882L118.795 74.5956L120.576 78.4041L109.239 85.0978L106.094 84.8635L103.802 82.147L103.576 80.5502Z" fill="#DADBD8"/>
<path d="M103.576 80.5502C103.603 80.5475 103.648 80.7921 103.732 81.2057C103.835 81.7015 103.951 82.2612 104.08 82.8806L103.875 82.8501C104.051 82.5282 104.238 82.1856 104.433 81.8292C104.743 81.2816 105.033 80.7683 105.298 80.3016L105.408 80.1056L105.482 80.3142C105.664 80.8321 105.76 81.269 105.842 81.5725C105.919 81.8764 105.967 82.0494 105.946 82.058C105.927 82.0661 105.84 81.9047 105.728 81.6084C105.613 81.3144 105.486 80.8793 105.292 80.3875L105.476 80.4001C105.22 80.8712 104.938 81.39 104.638 81.9424C104.439 82.2971 104.248 82.6374 104.068 82.9571L103.921 83.2191L103.863 82.9265C103.591 81.5554 103.52 80.5547 103.576 80.5502Z" fill="#17282F"/>
<path d="M107.03 82.1528L105.723 81.9937C105.37 82.3906 104.504 83.2088 104.15 83.6057L104.153 83.6422C104.307 84.512 104.462 85.3819 104.617 86.2513C105.347 86.2158 106.081 86.2747 106.796 86.4262C107.232 85.6624 107.561 85.0865 107.997 84.3228L107.03 82.1528Z" fill="#113785"/>
<path d="M109.259 131.169C109.232 131.193 108.848 130.784 108.205 130.15C107.563 129.515 106.649 128.666 105.575 127.805C104.499 126.946 103.469 126.241 102.709 125.754C101.948 125.266 101.465 124.981 101.482 124.95C101.49 124.935 101.62 124.99 101.849 125.101C102.078 125.211 102.401 125.385 102.795 125.612C103.582 126.067 104.636 126.756 105.722 127.622C106.805 128.49 107.709 129.367 108.324 130.035C108.633 130.368 108.873 130.646 109.031 130.845C109.19 131.044 109.271 131.158 109.259 131.169Z" fill="#17282F"/>
<path d="M107.131 82.4208L108.582 81.7073L109.073 84.2423L107.865 84.3493L107.131 82.4208Z" fill="#113785"/>
<path d="M108.384 86.4262V85.0339L109.113 85.0883L109.125 85.1598L109.233 85.0973L109.239 85.0978L109.661 84.8483L119.072 79.3778L108.384 86.4262Z" fill="#8F9192"/>
<path d="M109.239 85.0978L109.233 85.0973L109.661 84.8483L109.239 85.0978ZM109.113 85.0883L108.384 85.0339V84.3034L108.975 84.2508L109.113 85.0883ZM108.384 81.8049V80.6869L108.555 81.7204L108.384 81.8049Z" fill="#8F9192"/>
<path d="M108.384 84.3034V81.8049L108.555 81.7204L108.975 84.2508L108.384 84.3034Z" fill="#113785"/>
<path d="M120.576 78.4041C120.585 78.4172 120.364 78.5835 119.955 78.8725C119.542 79.1558 118.937 79.5559 118.169 80.0166C116.643 80.9539 114.451 82.1011 112.089 83.4561C111.091 84.0342 110.149 84.6154 109.302 85.189L109.161 85.2839L109.131 85.1185C108.806 83.3657 108.525 81.8454 108.313 80.7004L108.434 80.7381C107.971 81.1683 107.595 81.519 107.306 81.7878C107.041 82.0283 106.895 82.1528 106.885 82.1429C106.876 82.1335 107.004 81.9906 107.252 81.733C107.529 81.4516 107.89 81.0852 108.334 80.6356L108.427 80.5408L108.454 80.6734C108.686 81.8143 108.993 83.3297 109.348 85.0766L109.176 85.0065C110.025 84.4221 110.97 83.8337 111.972 83.2533C114.342 81.8939 116.542 80.7719 118.085 79.8741C118.862 79.4327 119.477 79.0551 119.905 78.7961C120.328 78.5314 120.567 78.3906 120.576 78.4041Z" fill="#17282F"/>
<path d="M105.739 82.4787L105.139 81.0133L104.15 82.828L104.574 83.4857L105.739 82.4787Z" fill="#113785"/>
<path d="M107.378 82.2666C107.428 82.3133 106.713 83.1391 105.944 84.2387C105.17 85.3356 104.637 86.2886 104.576 86.2571C104.521 86.2315 104.967 85.2173 105.752 84.1043C106.532 82.9885 107.335 82.2239 107.378 82.2666Z" fill="#17282F"/>
<path d="M106.652 86.4698C106.636 86.5331 106.145 86.4599 105.546 86.3596C104.947 86.2585 104.459 86.1672 104.465 86.1016C104.469 86.0382 104.974 86.0256 105.585 86.129C106.195 86.2311 106.669 86.4082 106.652 86.4698Z" fill="#17282F"/>
<path d="M52.7732 107.139L46.0094 88.0517C45.8802 87.6404 46.1324 87.207 46.5543 87.1148L62.1782 83.0402C62.5681 82.9544 62.9598 83.1769 63.085 83.5554L70.1941 105.057L92.2419 119.515L91.1824 120.595L85.542 119.223L52.7732 107.139Z" fill="#33535F"/>
<path d="M91.1824 120.595C91.1802 120.598 91.1414 120.577 91.0685 120.533C90.9848 120.48 90.8789 120.413 90.7466 120.33C90.453 120.138 90.0433 119.871 89.5232 119.531C88.4521 118.819 86.9266 117.804 85.0481 116.556C81.2696 114.016 76.0731 110.524 70.3333 106.667C69.933 106.397 69.5358 106.129 69.1657 105.879L69.1324 105.856L69.1203 105.819C67.0437 99.5635 65.1832 93.96 63.836 89.9011C63.1787 87.8876 62.6474 86.2585 62.2741 85.1149C62.0989 84.5624 61.9607 84.1277 61.8617 83.8148C61.8202 83.6759 61.7865 83.5639 61.7599 83.4754C61.7383 83.3985 61.7293 83.3585 61.7329 83.3572C61.7365 83.3563 61.7531 83.3936 61.782 83.4677C61.8144 83.555 61.8545 83.6642 61.9049 83.8004C62.0138 84.1101 62.1651 84.5399 62.3578 85.087C62.7473 86.2252 63.3029 87.8467 63.9887 89.8499C65.3539 93.9029 67.2382 99.4983 69.3422 105.745L69.2968 105.685C69.6669 105.935 70.0644 106.203 70.4643 106.473C76.1893 110.352 81.3722 113.865 85.1409 116.419C87.0022 117.693 88.5128 118.728 89.5745 119.455C90.0842 119.81 90.4854 120.09 90.7731 120.291C90.9001 120.382 91.0014 120.455 91.0816 120.513C91.1504 120.564 91.1847 120.592 91.1824 120.595Z" fill="#17282F"/>
<path d="M55.4694 106.731C55.4667 106.667 58.5392 106.469 62.3317 106.29C66.1252 106.111 69.2022 106.019 69.2054 106.084C69.2085 106.148 66.1364 106.345 62.3425 106.525C58.55 106.704 55.4725 106.796 55.4694 106.731Z" fill="#17282F"/>
<path d="M57.9606 95.8364C58.2326 96.7022 58.0795 97.5212 57.6189 97.6655C57.1578 97.8103 56.5635 97.2254 56.2911 96.3601C56.0187 95.4942 56.1717 94.6752 56.6328 94.5309C57.0939 94.3861 57.6882 94.971 57.9606 95.8364Z" fill="#DADBD8"/>
<path d="M77.2127 102.643C77.2127 102.643 76.6292 102.933 76.5382 102.004C76.4576 101.179 78.4392 99.9586 79.1808 99.501C79.9224 99.0429 81.4866 99.3576 82.2844 99.4614C83.3623 99.6012 85.8734 100.724 86.6717 101.68C87.4826 102.651 88.0387 105.136 88.3336 105.371C88.6286 105.606 98.6117 109.528 98.6117 109.528L96.3392 117.423C96.3392 117.423 87.1751 113.385 85.5515 111.76C83.9274 110.136 84.2863 109.722 84.0031 108.491C83.7194 107.26 83.4123 105.952 83.4123 105.952L82.5496 105.596L80.9269 106.057C80.9269 106.057 80.7288 106.672 80.3105 107.153C79.8107 107.727 78.9066 107.701 78.4041 107.13C78.4041 107.13 77.5806 107.416 77.179 106.488C77.0142 106.108 77.1326 105.529 77.1326 105.529C77.1326 105.529 76.3946 105.674 76.3892 104.756C76.3829 103.77 77.2127 102.643 77.2127 102.643Z" fill="#B96357"/>
<path d="M82.411 103.688C82.4096 103.727 82.076 103.714 81.5622 103.826C81.0525 103.935 80.3582 104.201 79.7612 104.726C79.1642 105.252 78.8121 105.906 78.6405 106.398C78.464 106.892 78.4343 107.225 78.3956 107.22C78.3704 107.221 78.3397 106.878 78.482 106.348C78.6198 105.823 78.9687 105.112 79.6059 104.551C80.2434 103.99 80.994 103.734 81.533 103.664C82.0778 103.59 82.4141 103.662 82.411 103.688Z" fill="#6F3430"/>
<path d="M81.6644 101.994C81.6604 102.036 81.3011 101.976 80.7513 102.103C80.2042 102.223 79.4847 102.575 78.8706 103.177C78.2555 103.782 77.8381 104.461 77.5342 104.946C77.2334 105.435 77.0443 105.739 77.0142 105.723C76.9871 105.708 77.124 105.378 77.3901 104.864C77.6594 104.355 78.0633 103.644 78.7067 103.01C79.3528 102.376 80.1331 102.024 80.7198 101.941C81.311 101.85 81.6725 101.973 81.6644 101.994Z" fill="#6F3430"/>
<path d="M81.519 100.142C81.5145 100.182 81.2047 100.139 80.7247 100.228C80.2457 100.311 79.6058 100.558 79.0043 100.998C78.4019 101.44 77.9381 101.948 77.5986 102.311C77.2609 102.676 77.0457 102.9 77.02 102.879C76.9957 102.859 77.1645 102.599 77.4725 102.203C77.7823 101.811 78.2362 101.272 78.8661 100.809C79.4969 100.347 80.1903 100.107 80.7013 100.064C81.216 100.014 81.5257 100.119 81.519 100.142Z" fill="#6F3430"/>
<path d="M124.125 82.2108C126.931 82.7588 128.758 85.221 129.329 88.2994C130.139 92.6662 120.112 113.305 118.244 117.811C116.275 122.558 111.92 123.596 109.385 123.537C106.849 123.479 89.0788 115.157 89.0788 115.157L91.684 106.154L107.473 110.834L113.73 93.2574" fill="#DADBD8"/>
<path d="M113.73 93.2573C113.73 93.2573 113.701 93.3652 113.632 93.5711C113.559 93.7847 113.455 94.0881 113.32 94.4846C113.037 95.2929 112.626 96.472 112.096 97.9878C111.022 101.034 109.471 105.431 107.554 110.863L107.527 110.939L107.449 110.916C102.911 109.577 97.5481 107.995 91.6534 106.257L91.7867 106.184C90.9559 109.063 90.0869 112.074 89.1878 115.189L89.127 115.055C93.2743 116.977 97.7138 118.995 102.341 120.939C104.22 121.717 106.082 122.493 107.964 123.091L108.671 123.293C108.907 123.354 109.141 123.375 109.375 123.419C109.86 123.427 110.345 123.403 110.824 123.338C111.783 123.22 112.713 122.948 113.577 122.559C115.307 121.781 116.739 120.451 117.609 118.845C118.051 118.052 118.374 117.191 118.749 116.368C119.12 115.545 119.487 114.731 119.849 113.927C122.766 107.508 125.352 101.706 127.207 96.7085C128.12 94.2108 128.911 91.9173 129.232 89.8319C129.3 89.3113 129.342 88.8015 129.271 88.3246C129.177 87.8449 129.07 87.3855 128.925 86.9584C128.644 86.1011 128.269 85.358 127.845 84.7498C126.995 83.5217 125.967 82.8941 125.258 82.5862C124.899 82.4333 124.613 82.3403 124.418 82.2944C124.223 82.2432 124.125 82.2108 124.125 82.2108C124.125 82.2108 124.226 82.2275 124.424 82.2711C124.622 82.3097 124.911 82.3956 125.276 82.543C125.997 82.8393 127.047 83.4619 127.92 84.6972C128.355 85.309 128.74 86.0584 129.031 86.9233C129.181 87.3545 129.293 87.8179 129.39 88.303C129.468 88.8033 129.427 89.3212 129.362 89.8494C129.049 91.96 128.267 94.2585 127.363 96.766C125.525 101.778 122.953 107.591 120.046 114.016C119.685 114.82 119.32 115.634 118.951 116.457C118.578 117.277 118.259 118.134 117.804 118.954C116.916 120.598 115.445 121.97 113.672 122.768C112.786 123.167 111.835 123.446 110.854 123.568C110.364 123.635 109.868 123.659 109.368 123.651C109.118 123.607 108.858 123.582 108.616 123.519L107.895 123.314C105.994 122.709 104.134 121.935 102.25 121.155C97.6175 119.208 93.1789 117.189 89.0306 115.26L88.9424 115.219L88.9694 115.126C89.8726 112.012 90.7461 109.002 91.5809 106.124L91.611 106.021L91.7142 106.051C97.6044 107.806 102.963 109.402 107.497 110.753L107.393 110.806C109.34 105.385 110.915 100.997 112.008 97.9564C112.555 96.4468 112.981 95.2731 113.273 94.468C113.419 94.0755 113.53 93.7743 113.608 93.563C113.685 93.3594 113.73 93.2573 113.73 93.2573Z" fill="#17282F"/>
<path d="M109.994 117.438C109.921 117.451 109.679 115.87 108.975 114.044C108.284 112.214 107.411 110.873 107.473 110.834C107.498 110.818 107.747 111.133 108.086 111.686C108.424 112.238 108.84 113.036 109.194 113.961C109.547 114.887 109.768 115.759 109.883 116.396C109.999 117.033 110.023 117.434 109.994 117.438Z" fill="#17282F"/>
<path d="M123.032 82.2495C123.045 82.2904 122.451 82.4814 121.558 82.9319C121.11 83.1539 120.598 83.4574 120.052 83.8283C119.514 84.2086 118.947 84.6613 118.4 85.1895C117.858 85.724 117.391 86.2796 116.998 86.8087C116.614 87.3437 116.298 87.8485 116.065 88.2904C115.594 89.171 115.389 89.7599 115.348 89.7455C115.333 89.7402 115.373 89.59 115.461 89.3207C115.544 89.0506 115.698 88.6702 115.918 88.2149C116.135 87.7572 116.441 87.2349 116.822 86.6828C117.212 86.1375 117.684 85.5666 118.236 85.0222C118.794 84.4837 119.376 84.027 119.931 83.6502C120.492 83.2821 121.022 82.989 121.486 82.7831C121.947 82.574 122.331 82.4284 122.604 82.3524C122.875 82.2715 123.027 82.2342 123.032 82.2495Z" fill="#17282F"/>
<path d="M24.513 147.001L15.9798 136.354C15.9798 136.354 48.9892 109.203 52.11 107.263C54.4734 105.795 59.2776 103.844 63.8252 105.37C68.3728 106.896 76.0713 112.206 78.9093 113.929C81.7468 115.651 106.453 130.929 109.123 134.667C109.123 134.667 103.748 144.376 100.228 146.004C97.4707 147.278 89.5228 145.375 84.8793 142.557C80.2353 139.738 58.93 121.521 58.93 121.521L24.513 147.001Z" fill="#17282F"/>
<path d="M27.6924 159.483L39.2205 167.751L61.406 131.654L83.8067 141.844L68.7443 116.718C68.7443 116.718 56.5964 116.861 54.6868 116.646C52.2374 116.372 47.7655 120.231 45.3242 124.944C43.2025 129.04 27.6924 159.483 27.6924 159.483Z" fill="#17282F"/>
<path d="M76.5558 138.869C76.509 138.914 71.4503 133.762 65.2584 127.362C59.0638 120.96 54.0817 115.736 54.1285 115.691C54.1749 115.646 59.2326 120.797 65.4268 127.199C71.6192 133.599 76.6022 138.824 76.5558 138.869Z" fill="#33535F"/>
<path d="M34.1691 139.853C34.18 139.832 44.0977 121.329 48.7709 120.096C48.7709 120.096 48.7497 120.125 48.7101 120.179C47.7186 121.234 46.7713 122.468 45.968 123.796C45.2305 124.919 44.5024 126.124 43.7942 127.39C43.3336 128.23 42.8964 129.06 42.4799 129.872C41.6082 131.444 40.8031 133.047 40.1885 134.554C39.9778 134.999 39.7743 135.431 39.5775 135.848L34.1691 139.853Z" fill="#0F191D"/>
<path d="M45.968 123.796C46.7713 122.468 47.7186 121.234 48.7101 120.179C48.6912 120.205 48.6682 120.236 48.6417 120.273C48.1937 120.737 47.7605 121.252 47.3481 121.806C46.8861 122.435 46.4255 123.1 45.968 123.796Z" fill="#0F191D"/>
<path d="M56.2415 117.884C56.233 117.915 55.7913 117.706 54.9385 117.635C54.0934 117.553 52.8227 117.699 51.4526 118.375C50.0735 119.037 48.7159 120.308 47.5214 121.935C46.3332 123.572 45.14 125.464 43.999 127.504C41.7473 131.609 40.0107 135.488 38.6252 138.231C37.9444 139.609 37.3627 140.708 36.9552 141.465C36.754 141.825 36.5925 142.111 36.4708 142.329C36.3577 142.525 36.295 142.626 36.2879 142.622C36.2807 142.618 36.3296 142.509 36.4293 142.306C36.5412 142.084 36.6891 141.79 36.8746 141.423C37.2564 140.654 37.8152 139.545 38.4762 138.159C39.8225 135.399 41.5343 131.51 43.7942 127.39C44.941 125.34 46.1405 123.45 47.3481 121.806C48.5629 120.171 49.9614 118.883 51.3801 118.227C52.7876 117.555 54.0902 117.433 54.9471 117.545C55.8124 117.645 56.2415 117.884 56.2415 117.884Z" fill="#33535F"/>
<path d="M33.3497 152.777L27.035 164.396C27.035 164.396 12.9569 162.735 11.7058 164.849L34.5824 176.526L44.0769 158.217L33.3497 152.777Z" fill="#17282F"/>
<path d="M34.6156 167.017C35.5471 167.857 34.3049 169.34 33.3333 168.523C32.2958 167.589 33.7774 166.081 34.686 167.09" fill="#DADBD8"/>
<path d="M34.5824 176.526L35.4669 174.643L13.2026 164.152C13.2026 164.152 11.9574 164.074 11.7058 164.849L34.5824 176.526Z" fill="#33535F"/>
<path d="M26.7239 164.091C26.6704 164.204 27.2029 164.54 27.5689 165.179C27.9517 165.809 27.9876 166.436 28.1131 166.445C28.752 166.058 27.3695 163.719 26.7239 164.091Z" fill="white"/>
<path d="M23.8169 163.857C23.7361 163.952 24.1227 164.388 24.2606 165.054C24.418 165.715 24.2525 166.274 24.3665 166.326C25.0995 166.176 24.5422 163.681 23.8169 163.857Z" fill="white"/>
<path d="M20.9859 166.028C21.6027 166.108 21.6945 163.635 21.0751 163.67C21.1044 163.746 21.0193 165.957 20.9859 166.028Z" fill="white"/>
<path d="M28.3036 161.502C28.3842 161.498 30.5726 162.783 30.6062 162.85C30.9585 162.326 28.5868 160.939 28.3036 161.502Z" fill="white"/>
<path d="M24.761 132.067L13.9402 139.684C13.9402 139.684 2.05993 131.962 0 133.302L15.3161 153.898L31.5469 141.14L24.761 132.067Z" fill="#17282F"/>
<path d="M19.57 145.39C20.0317 146.556 18.2597 147.335 17.7518 146.172C17.2371 144.875 19.2349 144.179 19.601 145.486" fill="#DADBD8"/>
<path d="M15.3161 153.898L16.9455 152.602L1.65118 133.34C1.65118 133.34 0.569711 132.719 0 133.302L15.3161 153.898Z" fill="#33535F"/>
<path d="M13.7969 139.273C13.6985 139.351 14.0269 139.888 14.0711 140.622C14.1344 141.356 13.8876 141.935 13.9965 141.998C14.741 141.933 14.5407 139.225 13.7969 139.273Z" fill="white"/>
<path d="M11.2955 137.776C11.1808 137.825 11.3335 138.388 11.1615 139.045C11.0086 139.707 10.612 140.135 10.6913 140.232C11.4149 140.423 12.0236 137.939 11.2955 137.776Z" fill="white"/>
<path d="M7.7935 138.468C8.31094 138.813 9.49147 136.638 8.92072 136.395C8.91334 136.476 7.85505 138.419 7.7935 138.468Z" fill="white"/>
<path d="M74.5053 136.846C72.436 135.261 61.9445 127.16 59.2367 123.833C57.2389 121.379 55.8687 118.972 55.187 117.661C55.4311 117.691 55.6337 117.732 55.794 117.77L65.9036 128.029C69.453 131.694 72.5742 134.891 74.5053 136.846ZM55.7152 117.69C55.5585 117.647 55.3667 117.604 55.1398 117.57C54.8399 116.989 54.6868 116.646 54.6868 116.646L55.7152 117.69Z" fill="#0F191D"/>
<path d="M74.861 137.118C74.861 137.118 74.7354 137.022 74.5053 136.846C72.5742 134.891 69.453 131.694 65.9036 128.029L74.861 137.118Z" fill="#20353D"/>
<path d="M55.794 117.77C55.6337 117.732 55.4311 117.691 55.187 117.661C55.1708 117.63 55.1551 117.6 55.1398 117.57C55.3667 117.604 55.5585 117.647 55.7152 117.69L55.794 117.77Z" fill="#20353D"/>
</svg>
